<?xml version="1.0" standalone="no"?><!DOCTYPE svg PUBLIC "-//W3C//DTD SVG 1.1//EN" "http://www.w3.org/Graphics/SVG/1.1/DTD/svg11.dtd"><svg t="1666544743138" class="icon" viewBox="0 0 1024 1024" version="1.1" xmlns="http://www.w3.org/2000/svg" p-id="1088" xmlns:xlink="http://www.w3.org/1999/xlink" width="200" height="200"><path d="M923.306667 348.586667l-341.333334-239.36a120.32 120.32 0 0 0-143.36 0L101.12 348.586667a38.826667 38.826667 0 0 0-8.533333 53.76 37.546667 37.546667 0 0 0 52.906666 8.533333L512 151.04l366.506667 259.84a37.546667 37.546667 0 0 0 52.906666-8.533333 38.826667 38.826667 0 0 0-8.106666-53.76zM810.666667 477.866667a38.4 38.4 0 0 0-38.4 38.4v345.6H640V640a85.333333 85.333333 0 0 0-85.333333-85.333333h-85.333334a85.333333 85.333333 0 0 0-85.333333 85.333333v221.866667H251.733333v-345.6a38.4 38.4 0 1 0-76.8 0V853.333333a85.333333 85.333333 0 0 0 85.333334 85.333334h503.466666a85.333333 85.333333 0 0 0 85.333334-85.333334v-337.066666a38.4 38.4 0 0 0-38.4-38.4zM460.8 640a8.533333 8.533333 0 0 1 8.533333-8.533333h85.333334a8.533333 8.533333 0 0 1 8.533333 8.533333v221.866667h-102.4z" p-id="1089"></path></svg>